<?xml version="1.0" encoding="UTF-8"?>
<!--Generator: Apple Native CoreSVG 341-->
<!DOCTYPE svg
PUBLIC "-//W3C//DTD SVG 1.1//EN"
       "http://www.w3.org/Graphics/SVG/1.1/DTD/svg11.dtd">
<svg version="1.1" xmlns="http://www.w3.org/2000/svg" xmlns:xlink="http://www.w3.org/1999/xlink" viewBox="0 0 3300 2200">
 <!--glyph: "", point size: 100.0, font version: "20.0d10e1", template writer version: "138.0.0"-->
 <style>.monochrome-0 {-sfsymbols-motion-group:0;-sfsymbols-layer-tags:-79ef9c6d20eebc06}

.multicolor-0:tintColor {-sfsymbols-motion-group:0;-sfsymbols-layer-tags:-79ef9c6d20eebc06}

.hierarchical-0:primary {-sfsymbols-motion-group:0;-sfsymbols-layer-tags:-79ef9c6d20eebc06}

.SFSymbolsPreviewWireframe {fill:none;opacity:1.0;stroke:black;stroke-width:0.5}
</style>
 <g id="Notes">
  <rect height="2200" id="artboard" style="fill:white;opacity:1" width="3300" x="0" y="0"/>
  <line style="fill:none;stroke:black;opacity:1;stroke-width:0.5;" x1="263" x2="3036" y1="292" y2="292"/>
  <text style="stroke:none;fill:black;font-family:sans-serif;font-size:13;font-weight:bold;" transform="matrix(1 0 0 1 263 322)">Weight/Scale Variations</text>
  <text style="stroke:none;fill:black;font-family:sans-serif;font-size:13;text-anchor:middle;" transform="matrix(1 0 0 1 559.711 322)">Ultralight</text>
  <text style="stroke:none;fill:black;font-family:sans-serif;font-size:13;text-anchor:middle;" transform="matrix(1 0 0 1 856.422 322)">Thin</text>
  <text style="stroke:none;fill:black;font-family:sans-serif;font-size:13;text-anchor:middle;" transform="matrix(1 0 0 1 1153.13 322)">Light</text>
  <text style="stroke:none;fill:black;font-family:sans-serif;font-size:13;text-anchor:middle;" transform="matrix(1 0 0 1 1449.84 322)">Regular</text>
  <text style="stroke:none;fill:black;font-family:sans-serif;font-size:13;text-anchor:middle;" transform="matrix(1 0 0 1 1746.56 322)">Medium</text>
  <text style="stroke:none;fill:black;font-family:sans-serif;font-size:13;text-anchor:middle;" transform="matrix(1 0 0 1 2043.27 322)">Semibold</text>
  <text style="stroke:none;fill:black;font-family:sans-serif;font-size:13;text-anchor:middle;" transform="matrix(1 0 0 1 2339.98 322)">Bold</text>
  <text style="stroke:none;fill:black;font-family:sans-serif;font-size:13;text-anchor:middle;" transform="matrix(1 0 0 1 2636.69 322)">Heavy</text>
  <text style="stroke:none;fill:black;font-family:sans-serif;font-size:13;text-anchor:middle;" transform="matrix(1 0 0 1 2933.4 322)">Black</text>
  <line style="fill:none;stroke:black;opacity:1;stroke-width:0.5;" x1="263" x2="3036" y1="1903" y2="1903"/>
  <g transform="matrix(0.2 0 0 0.2 263 1933)">
   <path d="m46.2402 4.15039c21.7773 0 39.4531-17.627 39.4531-39.4043s-17.6758-39.4043-39.4531-39.4043c-21.7285 0-39.4043 17.627-39.4043 39.4043s17.6758 39.4043 39.4043 39.4043Zm0-7.42188c-17.6758 0-31.9336-14.3066-31.9336-31.9824s14.2578-31.9824 31.9336-31.9824 31.9824 14.3066 31.9824 31.9824-14.3066 31.9824-31.9824 31.9824Zm-17.9688-31.9824c0 2.14844 1.51367 3.61328 3.75977 3.61328h10.498v10.5957c0 2.19727 1.46484 3.71094 3.61328 3.71094 2.24609 0 3.71094-1.51367 3.71094-3.71094v-10.5957h10.5957c2.19727 0 3.71094-1.46484 3.71094-3.61328 0-2.19727-1.51367-3.71094-3.71094-3.71094h-10.5957v-10.5469c0-2.24609-1.46484-3.75977-3.71094-3.75977-2.14844 0-3.61328 1.51367-3.61328 3.75977v10.5469h-10.498c-2.24609 0-3.75977 1.51367-3.75977 3.71094Z"/>
  </g>
  <g transform="matrix(0.2 0 0 0.2 281.506 1933)">
   <path d="m58.5449 14.5508c27.4902 0 49.8047-22.3145 49.8047-49.8047s-22.3145-49.8047-49.8047-49.8047-49.8047 22.3145-49.8047 49.8047 22.3145 49.8047 49.8047 49.8047Zm0-8.30078c-22.9492 0-41.5039-18.5547-41.5039-41.5039s18.5547-41.5039 41.5039-41.5039 41.5039 18.5547 41.5039 41.5039-18.5547 41.5039-41.5039 41.5039Zm-22.6562-41.5039c0 2.39258 1.66016 4.00391 4.15039 4.00391h14.3555v14.4043c0 2.44141 1.66016 4.15039 4.05273 4.15039 2.44141 0 4.15039-1.66016 4.15039-4.15039v-14.4043h14.4043c2.44141 0 4.15039-1.61133 4.15039-4.00391 0-2.44141-1.70898-4.15039-4.15039-4.15039h-14.4043v-14.3555c0-2.49023-1.70898-4.19922-4.15039-4.19922-2.39258 0-4.05273 1.70898-4.05273 4.19922v14.3555h-14.3555c-2.49023 0-4.15039 1.70898-4.15039 4.15039Z"/>
  </g>
  <g transform="matrix(0.2 0 0 0.2 304.924 1933)">
   <path d="m74.8535 28.3203c35.1074 0 63.623-28.4668 63.623-63.5742s-28.5156-63.623-63.623-63.623-63.5742 28.5156-63.5742 63.623 28.4668 63.5742 63.5742 63.5742Zm0-9.08203c-30.127 0-54.4922-24.3652-54.4922-54.4922s24.3652-54.4922 54.4922-54.4922 54.4922 24.3652 54.4922 54.4922-24.3652 54.4922-54.4922 54.4922Zm-28.8574-54.4922c0 2.58789 1.85547 4.39453 4.58984 4.39453h19.7266v19.7754c0 2.68555 1.85547 4.58984 4.44336 4.58984 2.68555 0 4.54102-1.85547 4.54102-4.58984v-19.7754h19.7754c2.68555 0 4.58984-1.80664 4.58984-4.39453 0-2.73438-1.85547-4.58984-4.58984-4.58984h-19.7754v-19.7266c0-2.73438-1.85547-4.63867-4.54102-4.63867-2.58789 0-4.44336 1.9043-4.44336 4.63867v19.7266h-19.7266c-2.73438 0-4.58984 1.85547-4.58984 4.58984Z"/>
  </g>
  <text style="stroke:none;fill:black;font-family:sans-serif;font-size:13;font-weight:bold;" transform="matrix(1 0 0 1 263 1953)">Design Variations</text>
  <text style="stroke:none;fill:black;font-family:sans-serif;font-size:13;" transform="matrix(1 0 0 1 263 1971)">Symbols are supported in up to nine weights and three scales.</text>
  <text style="stroke:none;fill:black;font-family:sans-serif;font-size:13;" transform="matrix(1 0 0 1 263 1989)">For optimal layout with text and other symbols, vertically align</text>
  <text style="stroke:none;fill:black;font-family:sans-serif;font-size:13;" transform="matrix(1 0 0 1 263 2007)">symbols with the adjacent text.</text>
  <line style="fill:none;stroke:#00AEEF;stroke-width:0.5;opacity:1.0;" x1="776" x2="776" y1="1919" y2="1933"/>
  <g transform="matrix(0.2 0 0 0.2 776 1933)">
   <path d="m16.5527 0.78125c2.58789 0 3.85742-0.976562 4.78516-3.71094l6.29883-17.2363h28.8086l6.29883 17.2363c0.927734 2.73438 2.19727 3.71094 4.73633 3.71094 2.58789 0 4.24805-1.5625 4.24805-4.00391 0-0.830078-0.146484-1.61133-0.537109-2.63672l-22.9004-60.9863c-1.12305-2.97852-3.125-4.49219-6.25-4.49219-3.02734 0-5.07812 1.46484-6.15234 4.44336l-22.9004 61.084c-0.390625 1.02539-0.537109 1.80664-0.537109 2.63672 0 2.44141 1.5625 3.95508 4.10156 3.95508Zm13.4766-28.3691 11.8652-32.8613h0.244141l11.8652 32.8613Z"/>
  </g>
  <line style="fill:none;stroke:#00AEEF;stroke-width:0.5;opacity:1.0;" x1="792.836" x2="792.836" y1="1919" y2="1933"/>
  <text style="stroke:none;fill:black;font-family:sans-serif;font-size:13;font-weight:bold;" transform="matrix(1 0 0 1 776 1953)">Margins</text>
  <text style="stroke:none;fill:black;font-family:sans-serif;font-size:13;" transform="matrix(1 0 0 1 776 1971)">Leading and trailing margins on the left and right side of each symbol</text>
  <text style="stroke:none;fill:black;font-family:sans-serif;font-size:13;" transform="matrix(1 0 0 1 776 1989)">can be adjusted by modifying the x-location of the margin guidelines.</text>
  <text style="stroke:none;fill:black;font-family:sans-serif;font-size:13;" transform="matrix(1 0 0 1 776 2007)">Modifications are automatically applied proportionally to all</text>
  <text style="stroke:none;fill:black;font-family:sans-serif;font-size:13;" transform="matrix(1 0 0 1 776 2025)">scales and weights.</text>
  <g transform="matrix(0.2 0 0 0.2 1289 1933)">
   <path d="m14.209 9.32617 8.49609 8.54492c4.29688 4.3457 9.22852 4.05273 13.8672-1.07422l53.4668-58.9355-4.83398-4.88281-53.0762 58.3984c-1.75781 2.00195-3.41797 2.49023-5.76172 0.146484l-5.85938-5.81055c-2.34375-2.29492-1.80664-4.00391 0.195312-5.81055l57.373-54.0039-4.88281-4.83398-57.959 54.4434c-4.93164 4.58984-5.32227 9.47266-1.02539 13.8184Zm32.0801-90.9668c-2.09961 2.05078-2.24609 4.93164-1.07422 6.88477 1.17188 1.80664 3.4668 2.97852 6.68945 2.14844 7.32422-1.70898 14.9414-2.00195 22.0703 2.68555l-2.92969 7.27539c-1.70898 4.15039-0.830078 7.08008 1.85547 9.81445l11.4746 11.5723c2.44141 2.44141 4.49219 2.53906 7.32422 2.05078l5.32227-0.976562 3.32031 3.36914-0.195312 2.7832c-0.195312 2.49023 0.439453 4.39453 2.88086 6.78711l3.80859 3.71094c2.39258 2.39258 5.46875 2.53906 7.8125 0.195312l14.5508-14.5996c2.34375-2.34375 2.24609-5.32227-0.146484-7.71484l-3.85742-3.80859c-2.39258-2.39258-4.24805-3.17383-6.64062-2.97852l-2.88086 0.244141-3.22266-3.17383 1.2207-5.61523c0.634766-2.83203-0.146484-5.0293-3.07617-7.95898l-10.9863-10.9375c-16.6992-16.6016-38.8672-16.2109-53.3203-1.75781Zm7.4707 1.85547c12.1582-8.88672 28.6133-7.37305 39.7461 3.75977l12.1582 12.0605c1.17188 1.17188 1.36719 2.09961 1.02539 3.80859l-1.61133 7.42188 7.51953 7.42188 4.93164-0.292969c1.26953-0.0488281 1.66016 0.0488281 2.63672 1.02539l2.88086 2.88086-12.207 12.207-2.88086-2.88086c-0.976562-0.976562-1.12305-1.36719-1.07422-2.68555l0.341797-4.88281-7.4707-7.42188-7.61719 1.26953c-1.61133 0.341797-2.34375 0.195312-3.56445-0.976562l-10.0098-10.0098c-1.26953-1.17188-1.41602-2.00195-0.634766-3.85742l4.39453-10.4492c-7.8125-7.27539-17.9688-10.4004-28.125-7.42188-0.78125 0.195312-1.07422-0.439453-0.439453-0.976562Z"/>
  </g>
  <text style="stroke:none;fill:black;font-family:sans-serif;font-size:13;font-weight:bold;" transform="matrix(1 0 0 1 1289 1953)">Exporting</text>
  <text style="stroke:none;fill:black;font-family:sans-serif;font-size:13;" transform="matrix(1 0 0 1 1289 1971)">Symbols should be outlined when exporting to ensure the</text>
  <text style="stroke:none;fill:black;font-family:sans-serif;font-size:13;" transform="matrix(1 0 0 1 1289 1989)">design is preserved when submitting to Xcode.</text>
  <text id="template-version" style="stroke:none;fill:black;font-family:sans-serif;font-size:13;text-anchor:end;" transform="matrix(1 0 0 1 3036 1933)">Template v.6.0</text>
  <text style="stroke:none;fill:black;font-family:sans-serif;font-size:13;text-anchor:end;" transform="matrix(1 0 0 1 3036 1951)">Requires Xcode 16 or greater</text>
  <text id="descriptive-name" style="stroke:none;fill:black;font-family:sans-serif;font-size:13;text-anchor:end;" transform="matrix(1 0 0 1 3036 1969)">Generated from google.cast.fill</text>
  <text style="stroke:none;fill:black;font-family:sans-serif;font-size:13;text-anchor:end;" transform="matrix(1 0 0 1 3036 1987)">Typeset at 100.0 points</text>
  <text style="stroke:none;fill:black;font-family:sans-serif;font-size:13;" transform="matrix(1 0 0 1 263 726)">Small</text>
  <text style="stroke:none;fill:black;font-family:sans-serif;font-size:13;" transform="matrix(1 0 0 1 263 1156)">Medium</text>
  <text style="stroke:none;fill:black;font-family:sans-serif;font-size:13;" transform="matrix(1 0 0 1 263 1586)">Large</text>
 </g>
 <g id="Guides">
  <g id="H-reference" style="fill:#27AAE1;stroke:none;" transform="matrix(1 0 0 1 339 696)">
   <path d="M0.993654 0L3.63775 0L29.3281-67.1323L30.0303-67.1323L30.0303-70.459L28.1226-70.459ZM11.6885-24.4799L46.9815-24.4799L46.2315-26.7285L12.4385-26.7285ZM55.1196 0L57.7637 0L30.6382-70.459L29.4326-70.459L29.4326-67.1323Z"/>
  </g>
  <line id="Baseline-S" style="fill:none;stroke:#27AAE1;opacity:1;stroke-width:0.5;" x1="263" x2="3036" y1="696" y2="696"/>
  <line id="Capline-S" style="fill:none;stroke:#27AAE1;opacity:1;stroke-width:0.5;" x1="263" x2="3036" y1="625.541" y2="625.541"/>
  <g id="H-reference" style="fill:#27AAE1;stroke:none;" transform="matrix(1 0 0 1 339 1126)">
   <path d="M0.993654 0L3.63775 0L29.3281-67.1323L30.0303-67.1323L30.0303-70.459L28.1226-70.459ZM11.6885-24.4799L46.9815-24.4799L46.2315-26.7285L12.4385-26.7285ZM55.1196 0L57.7637 0L30.6382-70.459L29.4326-70.459L29.4326-67.1323Z"/>
  </g>
  <line id="Baseline-M" style="fill:none;stroke:#27AAE1;opacity:1;stroke-width:0.5;" x1="263" x2="3036" y1="1126" y2="1126"/>
  <line id="Capline-M" style="fill:none;stroke:#27AAE1;opacity:1;stroke-width:0.5;" x1="263" x2="3036" y1="1055.54" y2="1055.54"/>
  <g id="H-reference" style="fill:#27AAE1;stroke:none;" transform="matrix(1 0 0 1 339 1556)">
   <path d="M0.993654 0L3.63775 0L29.3281-67.1323L30.0303-67.1323L30.0303-70.459L28.1226-70.459ZM11.6885-24.4799L46.9815-24.4799L46.2315-26.7285L12.4385-26.7285ZM55.1196 0L57.7637 0L30.6382-70.459L29.4326-70.459L29.4326-67.1323Z"/>
  </g>
  <line id="Baseline-L" style="fill:none;stroke:#27AAE1;opacity:1;stroke-width:0.5;" x1="263" x2="3036" y1="1556" y2="1556"/>
  <line id="Capline-L" style="fill:none;stroke:#27AAE1;opacity:1;stroke-width:0.5;" x1="263" x2="3036" y1="1485.54" y2="1485.54"/>
  <line id="right-margin-Regular-M" style="fill:none;stroke:#00AEEF;stroke-width:0.5;opacity:1.0;" x1="1512.3" x2="1512.3" y1="1030.79" y2="1150.12"/>
  <line id="left-margin-Regular-M" style="fill:none;stroke:#00AEEF;stroke-width:0.5;opacity:1.0;" x1="1387.39" x2="1387.39" y1="1030.79" y2="1150.12"/>
 </g>
 <g id="Symbols">
  <g id="Bold-L" transform="matrix(1 0 0 1 2258.91 1556)">
   <path class="monochrome-0 multicolor-0:tintColor hierarchical-0:primary SFSymbolsPreviewWireframe" d="M121.456-7.656L97.1702-7.656Q90.9802-26.845 77.3542-41.438Q63.7292-56.031 44.8622-62.804L121.456-62.804L121.456-7.656ZM12.4512 20.401L12.4512 1.696Q19.9772 1.696 25.2432 7.151Q30.5112 12.608 30.5112 20.401L12.4512 20.401ZM46.6362 20.401Q46.6362 6.105 36.6092-4.162Q26.5832-14.429 12.4512-14.429L12.4512-25.877Q31.4202-25.877 44.7532-12.302Q58.0852 1.275 58.0852 20.401L46.6362 20.401ZM74.2102 20.401Q74.2102 7.663 69.3722-3.706Q64.5352-15.074 56.1502-23.62Q47.7652-32.166 36.4922-37.084Q25.2202-42.002 12.4512-42.002L12.4512-53.451Q27.6832-53.451 40.9952-47.651Q54.3072-41.851 64.2592-31.768Q74.2102-21.685 79.9342-8.211Q85.6582 5.261 85.6582 20.401L74.2102 20.401ZM134.356 20.401L101.783 20.401Q101.783 16.693 101.38 12.931Q100.977 9.167 100.171 5.244L134.356 5.244Q134.356 5.244 134.356 5.244Q134.356 5.244 134.356 5.244L134.356-75.704Q134.356-75.704 134.356-75.704Q134.356-75.704 134.356-75.704L27.6092-75.704Q27.6092-75.704 27.6092-75.704Q27.6092-75.704 27.6092-75.704L27.6092-67.964Q23.6582-68.77 19.8692-69.173Q16.0792-69.576 12.4512-69.576L12.4512-75.704Q12.4512-82.188 16.8212-86.606Q21.1912-91.022 27.6092-91.022L134.356-91.022Q140.84-91.022 145.258-86.606Q149.675-82.188 149.675-75.704L149.675 5.244Q149.675 11.662 145.258 16.031Q140.84 20.401 134.356 20.401Z"/>
  </g>
  <g id="Semibold-L" transform="matrix(1 0 0 1 1963.99 1556)">
   <path class="monochrome-0 multicolor-0:tintColor hierarchical-0:primary SFSymbolsPreviewWireframe" d="M120.333-7.026L95.4592-7.026Q89.5072-26.914 75.4252-41.859Q61.3452-56.802 41.7062-63.434L120.333-63.434L120.333-7.026ZM12.4512 18.648L12.4512 0.785Q19.6252 0.785 24.6482 5.995Q29.6692 11.205 29.6692 18.648L12.4512 18.648ZM45.7942 18.648Q45.7942 4.633 36.0612-5.354Q26.3282-15.34 12.4512-15.34L12.4512-26.018Q30.7902-26.018 43.6302-12.911Q56.4722 0.197 56.4722 18.648L45.7942 18.648ZM72.5972 18.648Q72.5972 6.19 67.9002-4.897Q63.2032-15.985 55.0272-24.286Q46.8532-32.587 35.8902-37.365Q24.9272-42.143 12.4512-42.143L12.4512-52.821Q27.1602-52.821 40.0472-47.193Q52.9342-41.567 62.5562-31.836Q72.1762-22.106 77.7252-9.058Q83.2752 3.992 83.2752 18.648L72.5972 18.648ZM133.233 18.648L99.4002 18.648Q99.4002 15.501 99.1022 12.323Q98.8032 9.144 98.2082 5.874L133.233 5.874Q133.233 5.874 133.233 5.874Q133.233 5.874 133.233 5.874L133.233-76.334Q133.233-76.334 133.233-76.334Q133.233-76.334 133.233-76.334L25.2252-76.334Q25.2252-76.334 25.2252-76.334Q25.2252-76.334 25.2252-76.334L25.2252-67.754Q21.9402-68.349 18.7462-68.647Q15.5532-68.946 12.4512-68.946L12.4512-76.334Q12.4512-81.734 16.1562-85.467Q19.8622-89.2 25.2252-89.2L133.233-89.2Q138.634-89.2 142.367-85.467Q146.1-81.734 146.1-76.334L146.1 5.874Q146.1 11.237 142.367 14.943Q138.634 18.648 133.233 18.648Z"/>
  </g>
  <g id="Medium-L" transform="matrix(1 0 0 1 1668.62 1556)">
   <path class="monochrome-0 multicolor-0:tintColor hierarchical-0:primary SFSymbolsPreviewWireframe" d="M119.494-6.552L94.1772-6.552Q88.4032-26.968 73.9812-42.175Q59.5572-57.381 39.3412-63.908L119.494-63.908L119.494-6.552ZM12.4512 17.334L12.4512 0.101Q19.3622 0.101 24.2012 5.128Q29.0392 10.154 29.0392 17.334L12.4512 17.334ZM45.1642 17.334Q45.1642 3.528 35.6502-6.247Q26.1362-16.024 12.4512-16.024L12.4512-26.123Q30.3172-26.123 42.7902-13.368Q55.2632-0.613 55.2632 17.334L45.1642 17.334ZM71.3882 17.334Q71.3882 5.086 66.7952-5.791Q62.2052-16.669 54.1872-24.786Q46.1702-32.903 35.4392-37.575Q24.7062-42.248 12.4512-42.248L12.4512-52.347Q26.7682-52.347 39.3362-46.85Q51.9062-41.353 61.2792-31.887Q70.6532-22.422 76.0692-9.691Q81.4872 3.039 81.4872 17.334L71.3882 17.334ZM132.394 17.334L97.6122 17.334Q97.6122 14.608 97.3932 11.866Q97.1732 9.127 96.7362 6.348L132.394 6.348Q132.394 6.348 132.394 6.348Q132.394 6.348 132.394 6.348L132.394-76.808Q132.394-76.808 132.394-76.808Q132.394-76.808 132.394-76.808L23.4372-76.808Q23.4372-76.808 23.4372-76.808Q23.4372-76.808 23.4372-76.808L23.4372-67.596Q20.6522-68.033 17.9062-68.252Q15.1602-68.472 12.4512-68.472L12.4512-76.808Q12.4512-81.396 15.6582-84.614Q18.8662-87.833 23.4372-87.833L132.394-87.833Q136.981-87.833 140.2-84.614Q143.418-81.396 143.418-76.808L143.418 6.348Q143.418 10.92 140.2 14.127Q136.981 17.334 132.394 17.334Z"/>
  </g>
  <g id="Regular-L" transform="matrix(1 0 0 1 1372.89 1556)">
   <path class="monochrome-0 multicolor-0:tintColor hierarchical-0:primary SFSymbolsPreviewWireframe" d="M118.876-6.205L93.2372-6.205Q87.5942-27.006 72.9202-42.406Q58.2462-57.805 37.6062-64.255L118.876-64.255L118.876-6.205ZM12.4512 16.37L12.4512-0.4Q19.1712-0.4 23.8732 4.491Q28.5762 9.383 28.5762 16.37L12.4512 16.37ZM44.7012 16.37Q44.7012 2.719 35.3492-6.903Q25.9962-16.525 12.4512-16.525L12.4512-26.2Q29.9692-26.2 42.1732-13.703Q54.3762-1.206 54.3762 16.37L44.7012 16.37ZM70.5012 16.37Q70.5012 4.276 65.9862-6.447Q61.4712-17.17 53.5702-25.152Q45.6692-33.134 35.1072-37.729Q24.5452-42.325 12.4512-42.325L12.4512-52Q26.4802-52 38.8162-46.598Q51.1512-41.196 60.3432-31.924Q69.5342-22.652 74.8552-10.156Q80.1762 2.341 80.1762 16.37L70.5012 16.37ZM131.776 16.37L96.3012 16.37Q96.3012 13.951 96.1402 11.533Q95.9792 9.114 95.6562 6.695L131.776 6.695Q131.776 6.695 131.776 6.695Q131.776 6.695 131.776 6.695L131.776-77.155Q131.776-77.155 131.776-77.155Q131.776-77.155 131.776-77.155L22.1262-77.155Q22.1262-77.155 22.1262-77.155Q22.1262-77.155 22.1262-77.155L22.1262-67.48Q19.7072-67.802 17.2892-67.964Q14.8702-68.125 12.4512-68.125L12.4512-77.155Q12.4512-81.146 15.2942-83.989Q18.1352-86.83 22.1262-86.83L131.776-86.83Q135.767-86.83 138.61-83.989Q141.451-81.146 141.451-77.155L141.451 6.695Q141.451 10.686 138.61 13.527Q135.767 16.37 131.776 16.37Z"/>
  </g>
  <g id="Light-L" transform="matrix(1 0 0 1 1079.41 1556)">
   <path class="monochrome-0 multicolor-0:tintColor hierarchical-0:primary SFSymbolsPreviewWireframe" d="M112.3-9.554L88.0272-9.554Q82.8792-27.564 70.2832-41.133Q57.6882-54.704 40.0252-60.906L112.3-60.906L112.3-9.554ZM12.4512 13.145L12.4512-0.834Q18.0432-0.834 22.0072 3.264Q25.9702 7.361 25.9702 13.145L12.4512 13.145ZM42.4682 13.145Q42.4682 0.563 33.7362-8.322Q25.0032-17.207 12.4512-17.331L12.4512-24.649Q28.0372-24.649 38.9122-13.585Q49.7852-2.524 49.7852 13.145L42.4682 13.145ZM67.5232 13.145Q67.5232 1.683 63.2252-8.456Q58.9282-18.597 51.4612-26.144Q43.9932-33.692 33.9632-38.039Q23.9352-42.386 12.4512-42.386L12.4512-49.705Q25.4252-49.705 36.7792-44.741Q48.1342-39.776 56.5902-31.263Q65.0442-22.751 69.9432-11.268Q74.8422 0.216 74.8422 13.145L67.5232 13.145ZM125.697 13.145L91.3392 13.145Q91.3392 11.345 91.2232 9.486Q91.1092 7.625 90.9412 5.826L125.697 5.826Q126.566 5.826 127.124 5.268Q127.682 4.71 127.682 3.842L127.682-74.302Q127.682-75.17 127.124-75.728Q126.566-76.286 125.697-76.286L21.7532-76.286Q20.9472-76.286 20.3572-75.728Q19.7692-75.17 19.7692-74.302L19.7692-65.805Q17.9712-65.972 16.1312-66.087Q14.2912-66.203 12.4512-66.203L12.4512-74.302Q12.4512-78.092 15.2072-80.848Q17.9642-83.605 21.7532-83.605L125.697-83.605Q129.535-83.605 132.268-80.848Q134.999-78.092 134.999-74.302L134.999 3.842Q134.999 7.632 132.268 10.388Q129.535 13.145 125.697 13.145Z"/>
  </g>
  <g id="Thin-L" transform="matrix(1 0 0 1 785.921 1556)">
   <path class="monochrome-0 multicolor-0:tintColor hierarchical-0:primary SFSymbolsPreviewWireframe" d="M105.728-12.903L82.8192-12.903Q78.1672-28.122 67.6492-39.863Q57.1302-51.603 42.4442-57.557L105.728-57.557L105.728-12.903ZM12.4512 9.92L12.4512-1.268Q16.9162-1.268 20.1412 2.036Q23.3662 5.341 23.3662 9.92L12.4512 9.92ZM40.2362 9.92Q40.2362-1.592 32.1242-9.741Q24.0112-17.889 12.4512-18.137L12.4512-23.099Q26.1062-23.099 35.6522-13.469Q45.1982-3.839 45.1982 9.92L40.2362 9.92ZM64.5482 9.92Q64.5482-0.91 60.4672-10.467Q56.3852-20.023 49.3532-27.137Q42.3192-34.25 32.8232-38.35Q23.3262-42.449 12.4512-42.449L12.4512-47.411Q24.3712-47.411 34.7462-42.883Q45.1192-38.355 52.8392-30.602Q60.5582-22.851 65.0332-12.381Q69.5092-1.911 69.5092 9.92L64.5482 9.92ZM119.621 9.92L86.3782 9.92Q86.3782 8.741 86.3102 7.44Q86.2422 6.137 86.2292 4.958L119.621 4.958Q121.358 4.958 122.474 3.842Q123.589 2.725 123.589 0.99L123.589-71.45Q123.589-73.185 122.474-74.302Q121.358-75.418 119.621-75.418L21.3832-75.418Q19.7702-75.418 18.5912-74.302Q17.4132-73.185 17.4132-71.45L17.4132-64.131Q16.2342-64.144 14.9732-64.211Q13.7122-64.279 12.4512-64.279L12.4512-71.45Q12.4512-75.038 15.1232-77.708Q17.7952-80.38 21.3832-80.38L119.621-80.38Q123.304-80.38 125.928-77.708Q128.551-75.038 128.551-71.45L128.551 0.99Q128.551 4.578 125.928 7.248Q123.304 9.92 119.621 9.92Z"/>
  </g>
  <g id="Ultralight-L" transform="matrix(1 0 0 1 491.145 1556)">
   <path class="monochrome-0 multicolor-0:tintColor hierarchical-0:primary SFSymbolsPreviewWireframe" d="M101.784-14.912L79.6922-14.912Q75.3382-28.457 66.0672-39.1Q56.7952-49.742 43.8952-55.547L101.784-55.547L101.784-14.912ZM12.4512 7.985L12.4512-1.529Q16.2402-1.529 19.0222 1.3Q21.8032 4.128 21.8032 7.985L12.4512 7.985ZM38.8962 7.985Q38.8962-2.886 31.1562-10.593Q23.4162-18.299 12.4512-18.621L12.4512-22.169Q24.9462-22.169 33.6962-13.398Q42.4442-4.63 42.4442 7.985L38.8962 7.985ZM62.7612 7.985Q62.7612-2.466 58.8102-11.671Q54.8602-20.879 48.0872-27.732Q41.3152-34.585 32.1362-38.536Q22.9602-42.486 12.4512-42.486L12.4512-46.034Q23.7382-46.034 33.5232-41.769Q43.3092-37.502 50.5872-30.207Q57.8652-22.91 62.0872-13.048Q66.3082-3.185 66.3082 7.985L62.7612 7.985ZM115.974 7.985L83.4012 7.985Q83.4012 7.179 83.3612 6.211Q83.3202 5.244 83.4012 4.438L115.974 4.438Q118.231 4.438 119.682 2.986Q121.134 1.535 121.134-0.722L121.134-69.737Q121.134-71.995 119.682-73.446Q118.231-74.897 115.974-74.897L21.1582-74.897Q19.0622-74.897 17.5302-73.446Q15.9982-71.995 15.9982-69.737L15.9982-63.126Q15.1922-63.046 14.2782-63.086Q13.3652-63.126 12.4512-63.126L12.4512-69.737Q12.4512-73.204 15.0712-75.825Q17.6922-78.445 21.1582-78.445L115.974-78.445Q119.566-78.445 122.124-75.825Q124.681-73.204 124.681-69.737L124.681-0.722Q124.681 2.744 122.124 5.365Q119.566 7.985 115.974 7.985Z"/>
  </g>
  <g id="Bold-M" transform="matrix(1 0 0 1 2273.28 1126)">
   <path class="monochrome-0 multicolor-0:tintColor hierarchical-0:primary SFSymbolsPreviewWireframe" d="M95.2012-16.73L78.3262-16.73Q73.5762-28.855 65.0762-38.292Q56.5762-47.73 45.2012-53.73L95.2012-53.73L95.2012-16.73ZM12.4512 9.02L12.4512-7.98Q19.5352-7.98 24.4922-3.021Q29.4512 1.936 29.4512 9.02L12.4512 9.02ZM39.4512 9.02Q39.4512-2.23 31.5532-10.105Q23.6562-17.98 12.4512-17.98L12.4512-29.855Q28.7012-29.855 40.0132-18.54Q51.3262-7.224 51.3262 9.02L39.4512 9.02ZM61.3262 9.02Q61.3262-1.105 57.5132-9.98Q53.7012-18.855 47.0132-25.542Q40.3262-32.23 31.4622-36.042Q22.6002-39.855 12.4512-39.855L12.4512-51.73Q25.0762-51.73 36.1122-46.984Q47.1472-42.237 55.4252-33.984Q63.7012-25.73 68.4512-14.654Q73.2012-3.579 73.2012 9.02L61.3262 9.02ZM105.201 9.02L83.2012 9.02Q83.2012 5.02 82.7632 1.104Q82.3262-2.814 81.4512-6.73L105.201-6.73Q105.201-6.73 105.201-6.73Q105.201-6.73 105.201-6.73L105.201-63.73Q105.201-63.73 105.201-63.73Q105.201-63.73 105.201-63.73L28.2012-63.73Q28.2012-63.73 28.2012-63.73Q28.2012-63.73 28.2012-63.73L28.2012-59.98Q24.2632-60.855 20.3262-61.292Q16.3892-61.73 12.4512-61.73L12.4512-63.73Q12.4512-70.355 17.0132-74.917Q21.5762-79.48 28.2012-79.48L105.201-79.48Q111.826-79.48 116.389-74.917Q120.951-70.355 120.951-63.73L120.951-6.73Q120.951-0.105 116.389 4.458Q111.826 9.02 105.201 9.02Z"/>
  </g>
  <g id="Semibold-M" transform="matrix(1 0 0 1 1978.41 1126)">
   <path class="monochrome-0 multicolor-0:tintColor hierarchical-0:primary SFSymbolsPreviewWireframe" d="M94.0062-16.077L76.5872-16.077Q71.9992-28.855 63.0382-38.7Q54.0752-48.545 41.8852-54.382L94.0062-54.382L94.0062-16.077ZM12.4512 7.173L12.4512-8.959Q19.1722-8.959 23.8772-4.254Q28.5822 0.451 28.5822 7.173L12.4512 7.173ZM38.5822 7.173Q38.5822-3.697 30.9382-11.327Q23.2942-18.959 12.4512-18.959L12.4512-30.017Q27.9942-30.017 38.8182-19.192Q49.6412-8.367 49.6412 7.173L38.5822 7.173ZM59.6412 7.173Q59.6412-2.626 55.9372-11.202Q52.2332-19.779 45.8182-26.195Q39.4022-32.61 30.8332-36.314Q22.2632-40.017 12.4512-40.017L12.4512-51.077Q24.5322-51.077 35.1182-46.52Q45.7032-41.962 53.6422-34.036Q61.5822-26.11 66.1412-15.502Q70.7002-4.894 70.7002 7.173L59.6412 7.173ZM104.006 7.173L80.7002 7.173Q80.7002 3.825 80.3722 0.524Q80.0432-2.777 79.3852-6.077L104.006-6.077Q104.006-6.077 104.006-6.077Q104.006-6.077 104.006-6.077L104.006-64.382Q104.006-64.382 104.006-64.382Q104.006-64.382 104.006-64.382L25.7012-64.382Q25.7012-64.382 25.7012-64.382Q25.7012-64.382 25.7012-64.382L25.7012-59.762Q22.3882-60.42 19.0762-60.749Q15.7632-61.077 12.4512-61.077L12.4512-64.382Q12.4512-69.92 16.3072-73.776Q20.1632-77.632 25.7012-77.632L104.006-77.632Q109.543-77.632 113.399-73.776Q117.256-69.92 117.256-64.382L117.256-6.077Q117.256-0.54 113.399 3.316Q109.543 7.173 104.006 7.173Z"/>
  </g>
  <g id="Medium-M" transform="matrix(1 0 0 1 1683.09 1126)">
   <path class="monochrome-0 multicolor-0:tintColor hierarchical-0:primary SFSymbolsPreviewWireframe" d="M93.1082-15.589L75.2822-15.589Q70.8172-28.855 61.5092-39.006Q52.2012-49.156 39.3992-54.871L93.1082-54.871L93.1082-15.589ZM12.4512 5.786L12.4512-9.692Q18.8992-9.692 23.4152-5.177Q27.9292-0.662 27.9292 5.786L12.4512 5.786ZM37.9292 5.786Q37.9292-4.797 30.4772-12.245Q23.0252-19.692 12.4512-19.692L12.4512-30.14Q27.4642-30.14 37.9212-19.682Q48.3772-9.226 48.3772 5.786L37.9292 5.786ZM58.3772 5.786Q58.3772-3.767 54.7552-12.12Q51.1332-20.471 44.9212-26.684Q38.7082-32.896 30.3592-36.517Q22.0112-40.14 12.4512-40.14L12.4512-50.589Q24.1242-50.589 34.3722-46.172Q44.6202-41.756 52.3062-34.076Q59.9922-26.396 64.4082-16.139Q68.8262-5.881 68.8262 5.786L58.3772 5.786ZM103.108 5.786L78.8262 5.786Q78.8262 2.928 78.5782 0.089Q78.3312-2.75 77.8372-5.589L103.108-5.589Q103.108-5.589 103.108-5.589Q103.108-5.589 103.108-5.589L103.108-64.871Q103.108-64.871 103.108-64.871Q103.108-64.871 103.108-64.871L23.8262-64.871Q23.8262-64.871 23.8262-64.871Q23.8262-64.871 23.8262-64.871L23.8262-59.6Q20.9822-60.094 18.1382-60.341Q15.2952-60.589 12.4512-60.589L12.4512-64.871Q12.4512-69.594 15.7772-72.92Q19.1032-76.246 23.8262-76.246L103.108-76.246Q107.831-76.246 111.157-72.92Q114.483-69.594 114.483-64.871L114.483-5.589Q114.483-0.866 111.157 2.46Q107.831 5.786 103.108 5.786Z"/>
  </g>
  <g id="Regular-M" transform="matrix(1 0 0 1 1387.39 1126)">
   <path class="monochrome-0 multicolor-0:tintColor hierarchical-0:primary SFSymbolsPreviewWireframe" d="M92.4512-15.23L74.3262-15.23Q69.9512-28.855 60.3892-39.23Q50.8262-49.605 37.5762-55.23L92.4512-55.23L92.4512-15.23ZM12.4512 4.77L12.4512-10.23Q18.7012-10.23 23.0762-5.855Q27.4512-1.48 27.4512 4.77L12.4512 4.77ZM37.4512 4.77Q37.4512-5.605 30.1392-12.917Q22.8262-20.23 12.4512-20.23L12.4512-30.23Q27.0762-30.23 37.2632-20.042Q47.4512-9.855 47.4512 4.77L37.4512 4.77ZM57.4512 4.77Q57.4512-4.605 53.8892-12.792Q50.3262-20.98 44.2632-27.042Q38.2012-33.105 30.0132-36.667Q21.8262-40.23 12.4512-40.23L12.4512-50.23Q23.8262-50.23 33.8262-45.917Q43.8262-41.605 51.3262-34.105Q58.8262-26.605 63.1392-16.605Q67.4512-6.605 67.4512 4.77L57.4512 4.77ZM102.451 4.77L77.4512 4.77Q77.4512 2.27 77.2632-0.23Q77.0762-2.73 76.7012-5.23L102.451-5.23Q102.451-5.23 102.451-5.23Q102.451-5.23 102.451-5.23L102.451-65.23Q102.451-65.23 102.451-65.23Q102.451-65.23 102.451-65.23L22.4512-65.23Q22.4512-65.23 22.4512-65.23Q22.4512-65.23 22.4512-65.23L22.4512-59.48Q19.9512-59.855 17.4512-60.042Q14.9512-60.23 12.4512-60.23L12.4512-65.23Q12.4512-69.355 15.3892-72.292Q18.3262-75.23 22.4512-75.23L102.451-75.23Q106.576-75.23 109.513-72.292Q112.451-69.355 112.451-65.23L112.451-5.23Q112.451-1.105 109.513 1.833Q106.576 4.77 102.451 4.77Z"/>
  </g>
  <g id="Light-M" transform="matrix(1 0 0 1 1093.18 1126)">
   <path class="monochrome-0 multicolor-0:tintColor hierarchical-0:primary SFSymbolsPreviewWireframe" d="M88.0272-17.154L70.4802-17.154Q66.5372-29.287 58.0812-38.677Q49.6252-48.066 37.9122-53.306L88.0272-53.306L88.0272-17.154ZM12.4512 2.27L12.4512-10.037Q17.5472-10.037 21.1542-6.432Q24.7592-2.826 24.7592 2.27L12.4512 2.27ZM35.7202 2.27Q35.7202-7.336 28.9122-14.12Q22.1052-20.904 12.4512-20.999L12.4512-28.499Q25.2972-28.499 34.2582-19.544Q43.2202-10.587 43.2202 2.27L35.7202 2.27ZM55.1442 2.27Q55.1442-6.615 51.7732-14.375Q48.4042-22.134 42.6292-27.907Q36.8552-33.682 29.0962-37.052Q21.3362-40.422 12.4512-40.422L12.4512-47.922Q22.8652-47.922 31.9822-43.99Q41.1012-40.057 47.9402-33.219Q54.7792-26.38 58.7112-17.261Q62.6442-8.144 62.6442 2.27L55.1442 2.27ZM98.4122 2.27L73.6052 2.27Q73.6052 0.395 73.4772-1.48Q73.3502-3.355 73.0952-5.23L98.4122-5.23Q99.0862-5.23 99.5182-5.662Q99.9512-6.095 99.9512-6.769L99.9512-63.691Q99.9512-64.365 99.5182-64.797Q99.0862-65.23 98.4122-65.23L21.4902-65.23Q20.8162-65.23 20.3842-64.797Q19.9512-64.365 19.9512-63.691L19.9512-58.374Q18.0762-58.629 16.2012-58.756Q14.3262-58.884 12.4512-58.884L12.4512-63.691Q12.4512-67.42 15.1062-70.075Q17.7612-72.73 21.4902-72.73L98.4122-72.73Q102.141-72.73 104.796-70.075Q107.451-67.42 107.451-63.691L107.451-6.769Q107.451-3.04 104.796-0.385Q102.141 2.27 98.4122 2.27Z"/>
  </g>
  <g id="Thin-M" transform="matrix(1 0 0 1 798.971 1126)">
   <path class="monochrome-0 multicolor-0:tintColor hierarchical-0:primary SFSymbolsPreviewWireframe" d="M83.6052-19.076L66.6342-19.076Q63.1232-29.72 55.7732-38.124Q48.4222-46.527 38.2482-51.384L83.6052-51.384L83.6052-19.076ZM12.4512-0.23L12.4512-9.845Q16.3932-9.845 19.2302-7.009Q22.0662-4.172 22.0662-0.23L12.4512-0.23ZM33.9902-0.23Q33.9902-9.066 27.6862-15.321Q21.3842-21.576 12.4512-21.769L12.4512-26.769Q23.5182-26.769 31.2542-19.044Q38.9902-11.319 38.9902-0.23L33.9902-0.23ZM52.8362-0.23Q52.8362-8.625 49.6572-15.956Q46.4802-23.287 40.9952-28.774Q35.5082-34.259 28.1772-37.436Q20.8462-40.615 12.4512-40.615L12.4512-45.615Q21.9042-45.615 30.1402-42.062Q38.3762-38.51 44.5532-32.332Q50.7312-26.155 54.2842-17.919Q57.8362-9.682 57.8362-0.23L52.8362-0.23ZM94.3732-0.23L69.7592-0.23Q69.7592-1.48 69.6912-2.73Q69.6232-3.98 69.4902-5.23L94.3732-5.23Q95.7202-5.23 96.5862-6.095Q97.4512-6.961 97.4512-8.307L97.4512-62.152Q97.4512-63.499 96.5862-64.365Q95.7202-65.23 94.3732-65.23L20.5292-65.23Q19.1822-65.23 18.3162-64.365Q17.4512-63.499 17.4512-62.152L17.4512-57.269Q16.2012-57.402 14.9512-57.47Q13.7012-57.537 12.4512-57.537L12.4512-62.152Q12.4512-65.485 14.8232-67.857Q17.1962-70.23 20.5292-70.23L94.3732-70.23Q97.7062-70.23 100.078-67.857Q102.451-65.485 102.451-62.152L102.451-8.307Q102.451-4.975 100.078-2.602Q97.7062-0.23 94.3732-0.23Z"/>
  </g>
  <g id="Ultralight-M" transform="matrix(1 0 0 1 503.76 1126)">
   <path class="monochrome-0 multicolor-0:tintColor hierarchical-0:primary SFSymbolsPreviewWireframe" d="M80.9512-20.23L64.3262-20.23Q61.0762-29.98 54.3892-37.792Q47.7012-45.605 38.4512-50.23L80.9512-50.23L80.9512-20.23ZM12.4512-1.73L12.4512-9.73Q15.7012-9.73 18.0762-7.355Q20.4512-4.98 20.4512-1.73L12.4512-1.73ZM32.9512-1.73Q32.9512-10.105 26.9512-16.042Q20.9512-21.98 12.4512-22.23L12.4512-25.73Q22.4512-25.73 29.4512-18.744Q36.4512-11.759 36.4512-1.73L32.9512-1.73ZM51.4512-1.73Q51.4512-9.831 48.3892-16.905Q45.3262-23.98 40.0132-29.292Q34.7012-34.605 27.6262-37.667Q20.5522-40.73 12.4512-40.73L12.4512-44.23Q21.3262-44.23 29.0342-40.906Q36.7412-37.582 42.5222-31.801Q48.3032-26.02 51.6272-18.312Q54.9512-10.605 54.9512-1.73L51.4512-1.73ZM91.9512-1.73L67.4512-1.73Q67.4512-2.605 67.4202-3.48Q67.3892-4.355 67.3262-5.23L91.9512-5.23Q93.7012-5.23 94.8262-6.355Q95.9512-7.48 95.9512-9.23L95.9512-61.23Q95.9512-62.98 94.8262-64.105Q93.7012-65.23 91.9512-65.23L19.9512-65.23Q18.2012-65.23 17.0762-64.105Q15.9512-62.98 15.9512-61.23L15.9512-56.605Q15.0762-56.667 14.2012-56.699Q13.3262-56.73 12.4512-56.73L12.4512-61.23Q12.4512-64.324 14.6552-66.527Q16.8572-68.73 19.9512-68.73L91.9512-68.73Q95.0452-68.73 97.2482-66.527Q99.4512-64.324 99.4512-61.23L99.4512-9.23Q99.4512-6.136 97.2482-3.934Q95.0452-1.73 91.9512-1.73Z"/>
  </g>
  <g id="Bold-S" transform="matrix(1 0 0 1 2286.3 696)">
   <path class="monochrome-0 multicolor-0:tintColor hierarchical-0:primary SFSymbolsPreviewWireframe" d="M76.1632-22.211L58.3112-22.211Q54.7612-31.186 48.1532-37.844Q41.5452-44.501 32.9652-48.248L76.1632-48.248L76.1632-22.211ZM12.4512-3.473L12.4512-14.519Q17.0542-14.519 20.2752-11.297Q23.4972-8.076 23.4972-3.473L12.4512-3.473ZM30.5982-3.473Q30.5982-11.067 25.2902-16.343Q19.9822-21.62 12.4512-21.62L12.4512-30.2Q23.5952-30.2 31.3872-22.421Q39.1782-14.641 39.1782-3.473L30.5982-3.473ZM46.2792-3.473Q46.2792-10.456 43.6662-16.58Q41.0522-22.705 36.3672-27.389Q31.6832-32.074 25.5682-34.688Q19.4532-37.301 12.4512-37.301L12.4512-45.881Q21.3272-45.881 29.0172-42.576Q36.7072-39.27 42.4742-33.52Q48.2422-27.771 51.5512-20.05Q54.8602-12.328 54.8602-3.473L46.2792-3.473ZM83.2642-3.473L61.9612-3.473Q61.9612-6.431 61.6152-9.324Q61.2702-12.218 60.5802-15.11L83.2642-15.11Q83.2642-15.11 83.2642-15.11Q83.2642-15.11 83.2642-15.11L83.2642-55.349Q83.2642-55.349 83.2642-55.349Q83.2642-55.349 83.2642-55.349L24.0892-55.349Q24.0892-55.349 24.0892-55.349Q24.0892-55.349 24.0892-55.349L24.0892-51.602Q21.1792-52.292 18.2702-52.637Q15.3602-52.982 12.4512-52.982L12.4512-55.349Q12.4512-60.251 15.8192-63.619Q19.1872-66.987 24.0892-66.987L83.2642-66.987Q88.1652-66.987 91.5332-63.618Q94.9012-60.249 94.9012-55.346L94.9012-15.083Q94.9012-10.179 91.5332-6.826Q88.1652-3.473 83.2642-3.473Z"/>
  </g>
  <g id="Semibold-S" transform="matrix(1 0 0 1 1991.05 696)">
   <path class="monochrome-0 multicolor-0:tintColor hierarchical-0:primary SFSymbolsPreviewWireframe" d="M75.2202-21.697L56.9402-21.697Q53.5182-31.186 46.5462-38.165Q39.5732-45.144 30.3502-48.763L75.2202-48.763L75.2202-21.697ZM12.4512-4.93L12.4512-15.291Q16.7682-15.291 19.7902-12.269Q22.8122-9.247 22.8122-4.93L12.4512-4.93ZM29.9132-4.93Q29.9132-12.225 24.8052-17.308Q19.6972-22.392 12.4512-22.392L12.4512-30.328Q23.0392-30.328 30.4452-22.936Q37.8492-15.543 37.8492-4.93L29.9132-4.93ZM44.9502-4.93Q44.9502-11.657 42.4232-17.545Q39.8952-23.433 35.4252-27.904Q30.9542-32.374 25.0712-34.902Q19.1892-37.429 12.4512-37.429L12.4512-45.367Q20.8992-45.367 28.2332-42.21Q35.5682-39.053 41.0692-33.562Q46.5702-28.071 49.7292-20.718Q52.8882-13.366 52.8882-4.93L44.9502-4.93ZM82.3212-4.93L59.9892-4.93Q59.9892-7.374 59.7292-9.782Q59.4702-12.189 58.9512-14.596L82.3212-14.596Q82.3212-14.596 82.3212-14.596Q82.3212-14.596 82.3212-14.596L82.3212-55.864Q82.3212-55.864 82.3212-55.864Q82.3212-55.864 82.3212-55.864L22.1172-55.864Q22.1172-55.864 22.1172-55.864Q22.1172-55.864 22.1172-55.864L22.1172-51.43Q19.7002-51.949 17.2842-52.208Q14.8682-52.468 12.4512-52.468L12.4512-55.864Q12.4512-59.908 15.2622-62.719Q18.0732-65.53 22.1172-65.53L82.3212-65.53Q86.3652-65.53 89.1762-62.718Q91.9872-59.906 91.9872-55.86L91.9872-14.568Q91.9872-10.522 89.1762-7.726Q86.3652-4.93 82.3212-4.93Z"/>
  </g>
  <g id="Medium-S" transform="matrix(1 0 0 1 1695.43 696)">
   <path class="monochrome-0 multicolor-0:tintColor hierarchical-0:primary SFSymbolsPreviewWireframe" d="M74.5122-21.311L55.9102-21.311Q52.5852-31.186 45.3402-38.407Q38.0942-45.626 28.3882-49.149L74.5122-49.149L74.5122-21.311ZM12.4512-6.024L12.4512-15.87Q16.5532-15.87 19.4252-12.998Q22.2972-10.126 22.2972-6.024L12.4512-6.024ZM29.3982-6.024Q29.3982-13.093 24.4412-18.032Q19.4842-22.971 12.4512-22.971L12.4512-30.425Q22.6202-30.425 29.7362-23.323Q36.8522-16.22 36.8522-6.024L29.3982-6.024ZM43.9532-6.024Q43.9532-12.557 41.4892-18.268Q39.0272-23.98 34.7172-28.29Q30.4072-32.6 24.6972-35.062Q18.9892-37.526 12.4512-37.526L12.4512-44.981Q20.5772-44.981 27.6452-41.936Q34.7132-38.89 40.0142-33.593Q45.3152-28.297 48.3622-21.22Q51.4082-14.145 51.4082-6.024L43.9532-6.024ZM81.6132-6.024L58.5092-6.024Q58.5092-8.082 58.3142-10.125Q58.1182-12.168 57.7292-14.21L81.6132-14.21Q81.6132-14.21 81.6132-14.21Q81.6132-14.21 81.6132-14.21L81.6132-56.25Q81.6132-56.25 81.6132-56.25Q81.6132-56.25 81.6132-56.25L20.6372-56.25Q20.6372-56.25 20.6372-56.25Q20.6372-56.25 20.6372-56.25L20.6372-51.302Q18.5912-51.691 16.5442-51.887Q14.4982-52.082 12.4512-52.082L12.4512-56.25Q12.4512-59.651 14.8442-62.043Q17.2362-64.436 20.6372-64.436L81.6132-64.436Q85.0142-64.436 87.4062-62.042Q89.7992-59.649 89.7992-56.246L89.7992-14.182Q89.7992-10.78 87.4062-8.402Q85.0142-6.024 81.6132-6.024Z"/>
  </g>
  <g id="Regular-S" transform="matrix(1 0 0 1 1399.52 696)">
   <path class="monochrome-0 multicolor-0:tintColor hierarchical-0:primary SFSymbolsPreviewWireframe" d="M73.9932-21.028L55.1562-21.028Q51.9012-31.186 44.4552-38.583Q37.0092-45.98 26.9492-49.432L73.9932-49.432L73.9932-21.028ZM12.4512-6.826L12.4512-16.294Q16.3962-16.294 19.1582-13.532Q21.9192-10.771 21.9192-6.826L12.4512-6.826ZM29.0202-6.826Q29.0202-13.73 24.1742-18.562Q19.3272-23.395 12.4512-23.395L12.4512-30.496Q22.3142-30.496 29.2172-23.606Q36.1212-16.717 36.1212-6.826L29.0202-6.826ZM43.2222-6.826Q43.2222-13.218 40.8062-18.799Q38.3892-24.381 34.1982-28.573Q30.0062-32.764 24.4242-35.181Q18.8432-37.597 12.4512-37.597L12.4512-44.698Q20.3412-44.698 27.2132-41.734Q34.0862-38.771 39.2412-33.616Q44.3962-28.461 47.3592-21.588Q50.3232-14.716 50.3232-6.826L43.2222-6.826ZM81.0942-6.826L57.4242-6.826Q57.4242-8.601 57.2762-10.376Q57.1282-12.152 56.8322-13.927L81.0942-13.927Q81.0942-13.927 81.0942-13.927Q81.0942-13.927 81.0942-13.927L81.0942-56.533Q81.0942-56.533 81.0942-56.533Q81.0942-56.533 81.0942-56.533L19.5522-56.533Q19.5522-56.533 19.5522-56.533Q19.5522-56.533 19.5522-56.533L19.5522-51.207Q17.7772-51.503 16.0022-51.651Q14.2262-51.799 12.4512-51.799L12.4512-56.533Q12.4512-59.462 14.5372-61.548Q16.6232-63.634 19.5522-63.634L81.0942-63.634Q84.0232-63.634 86.1092-61.547Q88.1952-59.46 88.1952-56.529L88.1952-13.899Q88.1952-10.968 86.1092-8.897Q84.0232-6.826 81.0942-6.826Z"/>
  </g>
  <g id="Light-S" transform="matrix(1 0 0 1 1104.78 696)">
   <path class="monochrome-0 multicolor-0:tintColor hierarchical-0:primary SFSymbolsPreviewWireframe" d="M70.5022-22.546L52.1202-22.546Q49.2072-31.528 42.6342-38.147Q36.0602-44.766 27.2142-47.914L70.5022-47.914L70.5022-22.546ZM12.4512-8.798L12.4512-16.142Q15.4852-16.142 17.6402-13.988Q19.7942-11.833 19.7942-8.798L12.4512-8.798ZM27.6542-8.798Q27.6542-15.096 23.2062-19.511Q18.7582-23.927 12.4512-24.002L12.4512-29.13Q20.9102-29.13 26.8462-23.213Q32.7822-17.294 32.7822-8.798L27.6542-8.798ZM41.4012-8.798Q41.4012-14.804 39.1362-20.048Q36.8722-25.292 32.9072-29.255Q28.9442-33.22 23.7002-35.484Q18.4562-37.749 12.4512-37.749L12.4512-42.877Q19.5822-42.877 25.7592-40.214Q31.9362-37.55 36.5682-32.916Q41.2022-28.284 43.8662-22.107Q46.5292-15.93 46.5292-8.798L41.4012-8.798ZM77.9072-8.798L54.3892-8.798Q54.3892-10.081 54.2882-11.363Q54.1882-12.645 53.9862-13.927L77.9072-13.927Q78.4392-13.927 78.7802-14.268Q79.1212-14.609 79.1212-15.141L79.1212-55.319Q79.1212-55.851 78.7802-56.192Q78.4392-56.533 77.9072-56.533L18.7932-56.533Q18.2612-56.533 17.9202-56.192Q17.5792-55.851 17.5792-55.319L17.5792-50.334Q16.2972-50.536 15.0152-50.636Q13.7332-50.737 12.4512-50.737L12.4512-55.319Q12.4512-57.935 14.3142-59.798Q16.1772-61.661 18.7932-61.661L77.9072-61.661Q80.5232-61.661 82.3862-59.797Q84.2502-57.932 84.2502-55.315L84.2502-15.113Q84.2502-12.495 82.3862-10.647Q80.5232-8.798 77.9072-8.798Z"/>
  </g>
  <g id="Thin-S" transform="matrix(1 0 0 1 810.044 696)">
   <path class="monochrome-0 multicolor-0:tintColor hierarchical-0:primary SFSymbolsPreviewWireframe" d="M67.0132-24.063L49.0862-24.063Q46.5142-31.869 40.8142-37.71Q35.1122-43.552 27.4792-46.397L67.0132-46.397L67.0132-24.063ZM12.4512-10.771L12.4512-15.99Q14.5752-15.99 16.1232-14.443Q17.6702-12.895 17.6702-10.771L12.4512-10.771ZM26.2892-10.771Q26.2892-16.461 22.2392-20.459Q18.1892-24.457 12.4512-24.609L12.4512-27.765Q19.5072-27.765 24.4752-22.818Q29.4452-17.872 29.4452-10.771L26.2892-10.771ZM39.5812-10.771Q39.5812-16.389 37.4672-21.295Q35.3552-26.202 31.6192-29.939Q27.8822-33.675 22.9752-35.787Q18.0692-37.901 12.4512-37.901L12.4512-41.057Q18.8242-41.057 24.3052-38.693Q29.7862-36.329 33.8982-32.218Q38.0092-28.106 40.3732-22.625Q42.7372-17.144 42.7372-10.771L39.5812-10.771ZM74.7212-10.771L51.3552-10.771Q51.3552-11.56 51.3012-12.349Q51.2482-13.138 51.1432-13.927L74.7212-13.927Q75.7832-13.927 76.4672-14.609Q77.1492-15.293 77.1492-16.355L77.1492-54.105Q77.1492-55.167 76.4672-55.851Q75.7832-56.533 74.7212-56.533L18.0352-56.533Q16.9732-56.533 16.2892-55.851Q15.6072-55.167 15.6072-54.105L15.6072-49.463Q14.8182-49.568 14.0292-49.621Q13.2402-49.675 12.4512-49.675L12.4512-54.105Q12.4512-56.409 14.0912-58.049Q15.7312-59.689 18.0352-59.689L74.7212-59.689Q77.0252-59.689 78.6652-58.048Q80.3052-56.406 80.3052-54.101L80.3052-16.327Q80.3052-14.022 78.6652-12.396Q77.0252-10.771 74.7212-10.771Z"/>
  </g>
  <g id="Ultralight-S" transform="matrix(1 0 0 1 514.516 696)">
   <path class="monochrome-0 multicolor-0:tintColor hierarchical-0:primary SFSymbolsPreviewWireframe" d="M64.9192-24.973L47.2652-24.973Q44.8982-32.074 39.7202-37.449Q34.5432-42.824 27.6392-45.487L64.9192-45.487L64.9192-24.973ZM12.4512-11.954L12.4512-15.899Q14.0292-15.899 15.2122-14.716Q16.3952-13.532 16.3952-11.954L12.4512-11.954ZM25.4692-11.954Q25.4692-17.28 21.6582-21.028Q17.8472-24.776 12.4512-24.973L12.4512-26.945Q18.6642-26.945 23.0532-22.582Q27.4422-18.218 27.4422-11.954L25.4692-11.954ZM38.4882-11.954Q38.4882-17.34 36.4662-22.045Q34.4442-26.748 30.8442-30.348Q27.2442-33.948 22.5412-35.97Q17.8362-37.991 12.4512-37.991L12.4512-39.964Q18.3682-39.964 23.4322-37.78Q28.4962-35.596 32.2942-31.798Q36.0922-28 38.2762-22.936Q40.4602-17.872 40.4602-11.954L38.4882-11.954ZM72.8092-11.954L49.5342-11.954Q49.5342-12.448 49.5092-12.941Q49.4842-13.434 49.4352-13.927L72.8092-13.927Q74.1902-13.927 75.0772-14.815Q75.9652-15.702 75.9652-17.083L75.9652-53.377Q75.9652-54.758 75.0772-55.645Q74.1902-56.533 72.8092-56.533L17.5792-56.533Q16.1982-56.533 15.3112-55.645Q14.4232-54.758 14.4232-53.377L14.4232-48.939Q13.9302-48.988 13.4372-49.013Q12.9442-49.037 12.4512-49.037L12.4512-53.377Q12.4512-55.493 13.9572-56.999Q15.4632-58.505 17.5792-58.505L72.8092-58.505Q74.9252-58.505 76.4312-56.998Q77.9382-55.491 77.9382-53.373L77.9382-17.055Q77.9382-14.938 76.4312-13.447Q74.9252-11.954 72.8092-11.954Z"/>
  </g>
 </g>
</svg>
